<mxfile host="app.diagrams.net" agent="Mozilla/5.0 (Windows NT 10.0; Win64; x64) AppleWebKit/537.36 (KHTML, like Gecko) Chrome/131.0.0.0 Safari/537.36" version="25.0.3">
  <diagram name="페이지-1" id="Op5bT9b-ue9HVLPkXCSa">
    <mxGraphModel dx="1434" dy="780" grid="1" gridSize="10" guides="1" tooltips="1" connect="1" arrows="1" fold="1" page="1" pageScale="1" pageWidth="827" pageHeight="1169" math="0" shadow="0">
      <root>
        <mxCell id="0" />
        <mxCell id="1" parent="0" />
        <mxCell id="WEkr6nuwUTbzvQGYOgWE-17" value="" style="edgeStyle=orthogonalEdgeStyle;rounded=0;orthogonalLoop=1;jettySize=auto;html=1;" edge="1" parent="1" source="WEkr6nuwUTbzvQGYOgWE-1" target="WEkr6nuwUTbzvQGYOgWE-2">
          <mxGeometry relative="1" as="geometry" />
        </mxCell>
        <mxCell id="WEkr6nuwUTbzvQGYOgWE-1" value="시작" style="strokeWidth=2;html=1;shape=mxgraph.flowchart.terminator;whiteSpace=wrap;" vertex="1" parent="1">
          <mxGeometry x="90" y="20" width="100" height="60" as="geometry" />
        </mxCell>
        <mxCell id="WEkr6nuwUTbzvQGYOgWE-18" value="" style="edgeStyle=orthogonalEdgeStyle;rounded=0;orthogonalLoop=1;jettySize=auto;html=1;" edge="1" parent="1" source="WEkr6nuwUTbzvQGYOgWE-2" target="WEkr6nuwUTbzvQGYOgWE-3">
          <mxGeometry relative="1" as="geometry" />
        </mxCell>
        <mxCell id="WEkr6nuwUTbzvQGYOgWE-2" value="변수 number1 준비&lt;div&gt;변수 number2 준비&lt;/div&gt;&lt;div&gt;변수 op 준비&lt;/div&gt;&lt;div&gt;변수 result 준비&lt;/div&gt;" style="verticalLabelPosition=middle;verticalAlign=middle;html=1;shape=hexagon;perimeter=hexagonPerimeter2;arcSize=6;size=0.1;labelPosition=center;align=center;" vertex="1" parent="1">
          <mxGeometry x="40" y="120" width="200" height="60" as="geometry" />
        </mxCell>
        <mxCell id="WEkr6nuwUTbzvQGYOgWE-19" value="" style="edgeStyle=orthogonalEdgeStyle;rounded=0;orthogonalLoop=1;jettySize=auto;html=1;" edge="1" parent="1" source="WEkr6nuwUTbzvQGYOgWE-3" target="WEkr6nuwUTbzvQGYOgWE-4">
          <mxGeometry relative="1" as="geometry" />
        </mxCell>
        <mxCell id="WEkr6nuwUTbzvQGYOgWE-3" value="첫 번째 숫자를&lt;div&gt;number1에 입력&lt;/div&gt;" style="shape=parallelogram;html=1;strokeWidth=2;perimeter=parallelogramPerimeter;whiteSpace=wrap;rounded=1;arcSize=12;size=0.23;" vertex="1" parent="1">
          <mxGeometry x="70" y="220" width="140" height="60" as="geometry" />
        </mxCell>
        <mxCell id="WEkr6nuwUTbzvQGYOgWE-20" value="" style="edgeStyle=orthogonalEdgeStyle;rounded=0;orthogonalLoop=1;jettySize=auto;html=1;" edge="1" parent="1" source="WEkr6nuwUTbzvQGYOgWE-4" target="WEkr6nuwUTbzvQGYOgWE-6">
          <mxGeometry relative="1" as="geometry" />
        </mxCell>
        <mxCell id="WEkr6nuwUTbzvQGYOgWE-4" value="연산자를 op에&lt;div&gt;입력&lt;/div&gt;" style="shape=parallelogram;html=1;strokeWidth=2;perimeter=parallelogramPerimeter;whiteSpace=wrap;rounded=1;arcSize=12;size=0.23;" vertex="1" parent="1">
          <mxGeometry x="70" y="320" width="140" height="60" as="geometry" />
        </mxCell>
        <mxCell id="WEkr6nuwUTbzvQGYOgWE-6" value="두 번째 숫자를&lt;div&gt;number2에 입력&lt;/div&gt;" style="shape=parallelogram;html=1;strokeWidth=2;perimeter=parallelogramPerimeter;whiteSpace=wrap;rounded=1;arcSize=12;size=0.23;" vertex="1" parent="1">
          <mxGeometry x="70" y="420" width="140" height="60" as="geometry" />
        </mxCell>
        <mxCell id="WEkr6nuwUTbzvQGYOgWE-23" value="" style="edgeStyle=orthogonalEdgeStyle;rounded=0;orthogonalLoop=1;jettySize=auto;html=1;" edge="1" parent="1" source="WEkr6nuwUTbzvQGYOgWE-7" target="WEkr6nuwUTbzvQGYOgWE-8">
          <mxGeometry relative="1" as="geometry" />
        </mxCell>
        <mxCell id="WEkr6nuwUTbzvQGYOgWE-7" value="op가 &#39;+&#39; 인가?" style="strokeWidth=2;html=1;shape=mxgraph.flowchart.decision;whiteSpace=wrap;" vertex="1" parent="1">
          <mxGeometry x="320" y="120" width="160" height="60" as="geometry" />
        </mxCell>
        <mxCell id="WEkr6nuwUTbzvQGYOgWE-30" style="edgeStyle=orthogonalEdgeStyle;rounded=0;orthogonalLoop=1;jettySize=auto;html=1;entryX=0.5;entryY=0;entryDx=0;entryDy=0;" edge="1" parent="1" source="WEkr6nuwUTbzvQGYOgWE-8" target="WEkr6nuwUTbzvQGYOgWE-15">
          <mxGeometry relative="1" as="geometry">
            <Array as="points">
              <mxPoint x="400" y="620" />
              <mxPoint x="610" y="620" />
            </Array>
          </mxGeometry>
        </mxCell>
        <mxCell id="WEkr6nuwUTbzvQGYOgWE-8" value="number1과 number2를&lt;div&gt;&#39;+&#39; 한 결과를 result에 저장&lt;/div&gt;" style="rounded=1;whiteSpace=wrap;html=1;absoluteArcSize=1;arcSize=14;strokeWidth=2;" vertex="1" parent="1">
          <mxGeometry x="320" y="220" width="160" height="60" as="geometry" />
        </mxCell>
        <mxCell id="WEkr6nuwUTbzvQGYOgWE-24" value="" style="edgeStyle=orthogonalEdgeStyle;rounded=0;orthogonalLoop=1;jettySize=auto;html=1;" edge="1" parent="1" source="WEkr6nuwUTbzvQGYOgWE-9" target="WEkr6nuwUTbzvQGYOgWE-10">
          <mxGeometry relative="1" as="geometry" />
        </mxCell>
        <mxCell id="WEkr6nuwUTbzvQGYOgWE-25" style="edgeStyle=orthogonalEdgeStyle;rounded=0;orthogonalLoop=1;jettySize=auto;html=1;" edge="1" parent="1" source="WEkr6nuwUTbzvQGYOgWE-9" target="WEkr6nuwUTbzvQGYOgWE-11">
          <mxGeometry relative="1" as="geometry" />
        </mxCell>
        <mxCell id="WEkr6nuwUTbzvQGYOgWE-9" value="op가 &#39;-&#39; 인가?" style="strokeWidth=2;html=1;shape=mxgraph.flowchart.decision;whiteSpace=wrap;" vertex="1" parent="1">
          <mxGeometry x="530" y="220" width="160" height="60" as="geometry" />
        </mxCell>
        <mxCell id="WEkr6nuwUTbzvQGYOgWE-31" style="edgeStyle=orthogonalEdgeStyle;rounded=0;orthogonalLoop=1;jettySize=auto;html=1;" edge="1" parent="1" source="WEkr6nuwUTbzvQGYOgWE-10" target="WEkr6nuwUTbzvQGYOgWE-15">
          <mxGeometry relative="1" as="geometry" />
        </mxCell>
        <mxCell id="WEkr6nuwUTbzvQGYOgWE-10" value="number1과 number2를&lt;div&gt;&#39;-&#39; 한 결과를 result에 저장&lt;/div&gt;" style="rounded=1;whiteSpace=wrap;html=1;absoluteArcSize=1;arcSize=14;strokeWidth=2;" vertex="1" parent="1">
          <mxGeometry x="530" y="320" width="160" height="60" as="geometry" />
        </mxCell>
        <mxCell id="WEkr6nuwUTbzvQGYOgWE-26" value="" style="edgeStyle=orthogonalEdgeStyle;rounded=0;orthogonalLoop=1;jettySize=auto;html=1;" edge="1" parent="1" source="WEkr6nuwUTbzvQGYOgWE-11" target="WEkr6nuwUTbzvQGYOgWE-12">
          <mxGeometry relative="1" as="geometry" />
        </mxCell>
        <mxCell id="WEkr6nuwUTbzvQGYOgWE-11" value="op가 &#39;*&#39; 인가?" style="strokeWidth=2;html=1;shape=mxgraph.flowchart.decision;whiteSpace=wrap;" vertex="1" parent="1">
          <mxGeometry x="750" y="320" width="160" height="60" as="geometry" />
        </mxCell>
        <mxCell id="WEkr6nuwUTbzvQGYOgWE-32" style="edgeStyle=orthogonalEdgeStyle;rounded=0;orthogonalLoop=1;jettySize=auto;html=1;entryX=0.5;entryY=0;entryDx=0;entryDy=0;" edge="1" parent="1" source="WEkr6nuwUTbzvQGYOgWE-12" target="WEkr6nuwUTbzvQGYOgWE-15">
          <mxGeometry relative="1" as="geometry">
            <Array as="points">
              <mxPoint x="830" y="620" />
              <mxPoint x="610" y="620" />
            </Array>
          </mxGeometry>
        </mxCell>
        <mxCell id="WEkr6nuwUTbzvQGYOgWE-12" value="number1과 number2를&lt;div&gt;&#39;*&#39; 한 결과를 result에 저장&lt;/div&gt;" style="rounded=1;whiteSpace=wrap;html=1;absoluteArcSize=1;arcSize=14;strokeWidth=2;" vertex="1" parent="1">
          <mxGeometry x="750" y="420" width="160" height="60" as="geometry" />
        </mxCell>
        <mxCell id="WEkr6nuwUTbzvQGYOgWE-28" value="" style="edgeStyle=orthogonalEdgeStyle;rounded=0;orthogonalLoop=1;jettySize=auto;html=1;" edge="1" parent="1" source="WEkr6nuwUTbzvQGYOgWE-13" target="WEkr6nuwUTbzvQGYOgWE-14">
          <mxGeometry relative="1" as="geometry" />
        </mxCell>
        <mxCell id="WEkr6nuwUTbzvQGYOgWE-13" value="op가 &#39;/&#39; 인가?" style="strokeWidth=2;html=1;shape=mxgraph.flowchart.decision;whiteSpace=wrap;" vertex="1" parent="1">
          <mxGeometry x="980" y="420" width="160" height="60" as="geometry" />
        </mxCell>
        <mxCell id="WEkr6nuwUTbzvQGYOgWE-33" style="edgeStyle=orthogonalEdgeStyle;rounded=0;orthogonalLoop=1;jettySize=auto;html=1;entryX=0.5;entryY=0;entryDx=0;entryDy=0;" edge="1" parent="1" source="WEkr6nuwUTbzvQGYOgWE-14" target="WEkr6nuwUTbzvQGYOgWE-15">
          <mxGeometry relative="1" as="geometry">
            <Array as="points">
              <mxPoint x="1060" y="620" />
              <mxPoint x="610" y="620" />
            </Array>
          </mxGeometry>
        </mxCell>
        <mxCell id="WEkr6nuwUTbzvQGYOgWE-14" value="number1과 number2를&lt;div&gt;&#39;/&#39; 한 결과를 result에 저장&lt;/div&gt;" style="rounded=1;whiteSpace=wrap;html=1;absoluteArcSize=1;arcSize=14;strokeWidth=2;" vertex="1" parent="1">
          <mxGeometry x="980" y="520" width="160" height="60" as="geometry" />
        </mxCell>
        <mxCell id="WEkr6nuwUTbzvQGYOgWE-34" value="" style="edgeStyle=orthogonalEdgeStyle;rounded=0;orthogonalLoop=1;jettySize=auto;html=1;" edge="1" parent="1" source="WEkr6nuwUTbzvQGYOgWE-15" target="WEkr6nuwUTbzvQGYOgWE-16">
          <mxGeometry relative="1" as="geometry" />
        </mxCell>
        <mxCell id="WEkr6nuwUTbzvQGYOgWE-15" value="result를 출력" style="shape=parallelogram;html=1;strokeWidth=2;perimeter=parallelogramPerimeter;whiteSpace=wrap;rounded=1;arcSize=12;size=0.15000000000000002;" vertex="1" parent="1">
          <mxGeometry x="510" y="650" width="200" height="60" as="geometry" />
        </mxCell>
        <mxCell id="WEkr6nuwUTbzvQGYOgWE-16" value="끝" style="strokeWidth=2;html=1;shape=mxgraph.flowchart.terminator;whiteSpace=wrap;" vertex="1" parent="1">
          <mxGeometry x="560" y="750" width="100" height="60" as="geometry" />
        </mxCell>
        <mxCell id="WEkr6nuwUTbzvQGYOgWE-21" style="edgeStyle=orthogonalEdgeStyle;rounded=0;orthogonalLoop=1;jettySize=auto;html=1;entryX=0;entryY=0.5;entryDx=0;entryDy=0;entryPerimeter=0;" edge="1" parent="1" source="WEkr6nuwUTbzvQGYOgWE-6" target="WEkr6nuwUTbzvQGYOgWE-7">
          <mxGeometry relative="1" as="geometry" />
        </mxCell>
        <mxCell id="WEkr6nuwUTbzvQGYOgWE-22" style="edgeStyle=orthogonalEdgeStyle;rounded=0;orthogonalLoop=1;jettySize=auto;html=1;entryX=0.5;entryY=0;entryDx=0;entryDy=0;entryPerimeter=0;" edge="1" parent="1" source="WEkr6nuwUTbzvQGYOgWE-7" target="WEkr6nuwUTbzvQGYOgWE-9">
          <mxGeometry relative="1" as="geometry" />
        </mxCell>
        <mxCell id="WEkr6nuwUTbzvQGYOgWE-27" style="edgeStyle=orthogonalEdgeStyle;rounded=0;orthogonalLoop=1;jettySize=auto;html=1;entryX=0.5;entryY=0;entryDx=0;entryDy=0;entryPerimeter=0;" edge="1" parent="1" source="WEkr6nuwUTbzvQGYOgWE-11" target="WEkr6nuwUTbzvQGYOgWE-13">
          <mxGeometry relative="1" as="geometry" />
        </mxCell>
      </root>
    </mxGraphModel>
  </diagram>
</mxfile>
